<mxfile host="65bd71144e" scale="5" border="0">
    <diagram id="FgpiK9OE_3OYkIBHCV0x" name="Page-1">
        <mxGraphModel dx="2003" dy="1230" grid="1" gridSize="10" guides="1" tooltips="1" connect="1" arrows="1" fold="1" page="1" pageScale="1" pageWidth="850" pageHeight="1100" background="#ffffff" math="0" shadow="0">
            <root>
                <mxCell id="0"/>
                <mxCell id="1" parent="0"/>
                <mxCell id="810" value="Assets" style="childLayout=tableLayout;recursiveResize=0;shadow=1;fontFamily=Garamond;fontSize=35;movable=0;resizable=0;rotatable=0;deletable=0;editable=0;connectable=0;" vertex="1" parent="1">
                    <mxGeometry x="930" y="510" width="890" height="420" as="geometry"/>
                </mxCell>
                <mxCell id="811" style="shape=tableRow;horizontal=0;startSize=0;swimlaneHead=0;swimlaneBody=0;top=0;left=0;bottom=0;right=0;dropTarget=0;collapsible=0;recursiveResize=0;expand=0;fontStyle=0;strokeColor=#6c8ebf;fillColor=#dae8fc;fontFamily=Garamond;fontSize=35;movable=0;resizable=0;rotatable=0;deletable=0;editable=0;connectable=0;" vertex="1" parent="810">
                    <mxGeometry width="890" height="38" as="geometry"/>
                </mxCell>
                <mxCell id="812" value="TimeIndex" style="connectable=0;recursiveResize=0;strokeColor=#9673a6;fillColor=#e1d5e7;align=center;fontStyle=1;html=1;fontFamily=Garamond;fontSize=35;movable=0;resizable=0;rotatable=0;deletable=0;editable=0;" vertex="1" parent="811">
                    <mxGeometry width="295" height="38" as="geometry">
                        <mxRectangle width="295" height="38" as="alternateBounds"/>
                    </mxGeometry>
                </mxCell>
                <mxCell id="813" value="x1" style="connectable=0;recursiveResize=0;strokeColor=#9673a6;fillColor=#e1d5e7;align=center;fontStyle=1;html=1;fontFamily=Garamond;fontSize=35;movable=0;resizable=0;rotatable=0;deletable=0;editable=0;" vertex="1" parent="811">
                    <mxGeometry x="295" width="300" height="38" as="geometry">
                        <mxRectangle width="300" height="38" as="alternateBounds"/>
                    </mxGeometry>
                </mxCell>
                <mxCell id="814" value="x2" style="connectable=0;recursiveResize=0;strokeColor=#9673a6;fillColor=#e1d5e7;align=center;fontStyle=1;html=1;fontFamily=Garamond;fontSize=35;movable=0;resizable=0;rotatable=0;deletable=0;editable=0;" vertex="1" parent="811">
                    <mxGeometry x="595" width="295" height="38" as="geometry">
                        <mxRectangle width="295" height="38" as="alternateBounds"/>
                    </mxGeometry>
                </mxCell>
                <mxCell id="815" value="" style="shape=tableRow;horizontal=0;startSize=0;swimlaneHead=0;swimlaneBody=0;top=0;left=0;bottom=0;right=0;dropTarget=0;collapsible=0;recursiveResize=0;expand=0;fontStyle=0;strokeColor=inherit;fillColor=#ffffff;fontFamily=Garamond;fontSize=35;movable=0;resizable=0;rotatable=0;deletable=0;editable=0;connectable=0;" vertex="1" parent="810">
                    <mxGeometry y="38" width="890" height="65" as="geometry"/>
                </mxCell>
                <mxCell id="816" value="(n-2): 00:00" style="connectable=0;recursiveResize=0;strokeColor=#9673a6;fillColor=#e1d5e7;align=center;whiteSpace=wrap;html=1;fontFamily=Garamond;fontSize=35;movable=0;resizable=0;rotatable=0;deletable=0;editable=0;" vertex="1" parent="815">
                    <mxGeometry width="295" height="65" as="geometry">
                        <mxRectangle width="295" height="65" as="alternateBounds"/>
                    </mxGeometry>
                </mxCell>
                <mxCell id="817" value="" style="connectable=0;recursiveResize=0;strokeColor=inherit;fillColor=inherit;align=center;whiteSpace=wrap;html=1;fontFamily=Garamond;fontSize=35;movable=0;resizable=0;rotatable=0;deletable=0;editable=0;" vertex="1" parent="815">
                    <mxGeometry x="295" width="300" height="65" as="geometry">
                        <mxRectangle width="300" height="65" as="alternateBounds"/>
                    </mxGeometry>
                </mxCell>
                <mxCell id="818" value="" style="connectable=0;recursiveResize=0;align=center;whiteSpace=wrap;html=1;fontFamily=Garamond;fontSize=35;movable=0;resizable=0;rotatable=0;deletable=0;editable=0;" vertex="1" parent="815">
                    <mxGeometry x="595" width="295" height="65" as="geometry">
                        <mxRectangle width="295" height="65" as="alternateBounds"/>
                    </mxGeometry>
                </mxCell>
                <mxCell id="819" value="" style="shape=tableRow;horizontal=0;startSize=0;swimlaneHead=0;swimlaneBody=0;top=0;left=0;bottom=0;right=0;dropTarget=0;collapsible=0;recursiveResize=0;expand=0;fontStyle=1;strokeColor=inherit;fillColor=#EAF2D3;fontFamily=Garamond;fontSize=35;movable=0;resizable=0;rotatable=0;deletable=0;editable=0;connectable=0;" vertex="1" parent="810">
                    <mxGeometry y="103" width="890" height="61" as="geometry"/>
                </mxCell>
                <mxCell id="820" value="(n-1): 01:00" style="connectable=0;recursiveResize=0;whiteSpace=wrap;html=1;fillColor=#e1d5e7;strokeColor=#9673a6;fontFamily=Garamond;fontSize=35;movable=0;resizable=0;rotatable=0;deletable=0;editable=0;" vertex="1" parent="819">
                    <mxGeometry width="295" height="61" as="geometry">
                        <mxRectangle width="295" height="61" as="alternateBounds"/>
                    </mxGeometry>
                </mxCell>
                <mxCell id="821" value="" style="connectable=0;recursiveResize=0;whiteSpace=wrap;html=1;fontFamily=Garamond;fontSize=35;movable=0;resizable=0;rotatable=0;deletable=0;editable=0;" vertex="1" parent="819">
                    <mxGeometry x="295" width="300" height="61" as="geometry">
                        <mxRectangle width="300" height="61" as="alternateBounds"/>
                    </mxGeometry>
                </mxCell>
                <mxCell id="822" value="" style="connectable=0;recursiveResize=0;whiteSpace=wrap;html=1;fontFamily=Garamond;fontSize=35;movable=0;resizable=0;rotatable=0;deletable=0;editable=0;" vertex="1" parent="819">
                    <mxGeometry x="595" width="295" height="61" as="geometry">
                        <mxRectangle width="295" height="61" as="alternateBounds"/>
                    </mxGeometry>
                </mxCell>
                <mxCell id="835" value="" style="shape=tableRow;horizontal=0;startSize=0;swimlaneHead=0;swimlaneBody=0;top=0;left=0;bottom=0;right=0;dropTarget=0;collapsible=0;recursiveResize=0;expand=0;fontStyle=1;strokeColor=inherit;fillColor=#EAF2D3;fontFamily=Garamond;fontSize=35;movable=0;resizable=0;rotatable=0;deletable=0;editable=0;connectable=0;" vertex="1" parent="810">
                    <mxGeometry y="164" width="890" height="63" as="geometry"/>
                </mxCell>
                <mxCell id="836" value="n: 02:00" style="connectable=0;recursiveResize=0;whiteSpace=wrap;html=1;fillColor=#e1d5e7;strokeColor=#9673a6;fontFamily=Garamond;fontSize=35;movable=0;resizable=0;rotatable=0;deletable=0;editable=0;" vertex="1" parent="835">
                    <mxGeometry width="295" height="63" as="geometry">
                        <mxRectangle width="295" height="63" as="alternateBounds"/>
                    </mxGeometry>
                </mxCell>
                <mxCell id="837" value="" style="connectable=0;recursiveResize=0;whiteSpace=wrap;html=1;fontFamily=Garamond;fontSize=35;movable=0;resizable=0;rotatable=0;deletable=0;editable=0;" vertex="1" parent="835">
                    <mxGeometry x="295" width="300" height="63" as="geometry">
                        <mxRectangle width="300" height="63" as="alternateBounds"/>
                    </mxGeometry>
                </mxCell>
                <mxCell id="838" value="" style="connectable=0;recursiveResize=0;whiteSpace=wrap;html=1;fontFamily=Garamond;fontSize=35;movable=0;resizable=0;rotatable=0;deletable=0;editable=0;" vertex="1" parent="835">
                    <mxGeometry x="595" width="295" height="63" as="geometry">
                        <mxRectangle width="295" height="63" as="alternateBounds"/>
                    </mxGeometry>
                </mxCell>
                <mxCell id="823" value="" style="shape=tableRow;horizontal=0;startSize=0;swimlaneHead=0;swimlaneBody=0;top=0;left=0;bottom=0;right=0;dropTarget=0;collapsible=0;recursiveResize=0;expand=0;fontStyle=0;strokeColor=inherit;fillColor=#ffffff;fontFamily=Garamond;fontSize=35;movable=0;resizable=0;rotatable=0;deletable=0;editable=0;connectable=0;" vertex="1" parent="810">
                    <mxGeometry y="227" width="890" height="65" as="geometry"/>
                </mxCell>
                <mxCell id="824" value="(n+1): 03:00" style="connectable=0;recursiveResize=0;strokeColor=#9673a6;fillColor=#e1d5e7;fontStyle=0;align=center;whiteSpace=wrap;html=1;fontFamily=Garamond;fontSize=35;movable=0;resizable=0;rotatable=0;deletable=0;editable=0;" vertex="1" parent="823">
                    <mxGeometry width="295" height="65" as="geometry">
                        <mxRectangle width="295" height="65" as="alternateBounds"/>
                    </mxGeometry>
                </mxCell>
                <mxCell id="825" value="" style="connectable=0;recursiveResize=0;strokeColor=inherit;fillColor=inherit;fontStyle=0;align=center;whiteSpace=wrap;html=1;fontFamily=Garamond;fontSize=35;movable=0;resizable=0;rotatable=0;deletable=0;editable=0;" vertex="1" parent="823">
                    <mxGeometry x="295" width="300" height="65" as="geometry">
                        <mxRectangle width="300" height="65" as="alternateBounds"/>
                    </mxGeometry>
                </mxCell>
                <mxCell id="826" value="" style="connectable=0;recursiveResize=0;strokeColor=inherit;fillColor=inherit;fontStyle=0;align=center;whiteSpace=wrap;html=1;fontFamily=Garamond;fontSize=35;movable=0;resizable=0;rotatable=0;deletable=0;editable=0;" vertex="1" parent="823">
                    <mxGeometry x="595" width="295" height="65" as="geometry">
                        <mxRectangle width="295" height="65" as="alternateBounds"/>
                    </mxGeometry>
                </mxCell>
                <mxCell id="831" value="" style="shape=tableRow;horizontal=0;startSize=0;swimlaneHead=0;swimlaneBody=0;top=0;left=0;bottom=0;right=0;dropTarget=0;collapsible=0;recursiveResize=0;expand=0;fontStyle=0;strokeColor=inherit;fillColor=#ffffff;fontFamily=Garamond;fontSize=35;movable=0;resizable=0;rotatable=0;deletable=0;editable=0;connectable=0;" vertex="1" parent="810">
                    <mxGeometry y="292" width="890" height="67" as="geometry"/>
                </mxCell>
                <mxCell id="832" value="(n+2): 04:00" style="connectable=0;recursiveResize=0;strokeColor=#9673a6;fillColor=#e1d5e7;fontStyle=0;align=center;whiteSpace=wrap;html=1;fontFamily=Garamond;fontSize=35;movable=0;resizable=0;rotatable=0;deletable=0;editable=0;" vertex="1" parent="831">
                    <mxGeometry width="295" height="67" as="geometry">
                        <mxRectangle width="295" height="67" as="alternateBounds"/>
                    </mxGeometry>
                </mxCell>
                <mxCell id="833" value="" style="connectable=0;recursiveResize=0;strokeColor=inherit;fillColor=inherit;fontStyle=0;align=center;whiteSpace=wrap;html=1;fontFamily=Garamond;fontSize=35;movable=0;resizable=0;rotatable=0;deletable=0;editable=0;" vertex="1" parent="831">
                    <mxGeometry x="295" width="300" height="67" as="geometry">
                        <mxRectangle width="300" height="67" as="alternateBounds"/>
                    </mxGeometry>
                </mxCell>
                <mxCell id="834" value="" style="connectable=0;recursiveResize=0;strokeColor=inherit;fillColor=inherit;fontStyle=0;align=center;whiteSpace=wrap;html=1;fontFamily=Garamond;fontSize=35;movable=0;resizable=0;rotatable=0;deletable=0;editable=0;" vertex="1" parent="831">
                    <mxGeometry x="595" width="295" height="67" as="geometry">
                        <mxRectangle width="295" height="67" as="alternateBounds"/>
                    </mxGeometry>
                </mxCell>
                <mxCell id="827" value="" style="shape=tableRow;horizontal=0;startSize=0;swimlaneHead=0;swimlaneBody=0;top=0;left=0;bottom=0;right=0;dropTarget=0;collapsible=0;recursiveResize=0;expand=0;fontStyle=1;strokeColor=inherit;fillColor=#EAF2D3;fontFamily=Garamond;fontSize=35;movable=0;resizable=0;rotatable=0;deletable=0;editable=0;connectable=0;" vertex="1" parent="810">
                    <mxGeometry y="359" width="890" height="61" as="geometry"/>
                </mxCell>
                <mxCell id="828" value="(n+3): 05:00" style="connectable=0;recursiveResize=0;whiteSpace=wrap;html=1;fillColor=#e1d5e7;strokeColor=#9673a6;fontFamily=Garamond;fontSize=35;movable=0;resizable=0;rotatable=0;deletable=0;editable=0;" vertex="1" parent="827">
                    <mxGeometry width="295" height="61" as="geometry">
                        <mxRectangle width="295" height="61" as="alternateBounds"/>
                    </mxGeometry>
                </mxCell>
                <mxCell id="829" value="" style="connectable=0;recursiveResize=0;whiteSpace=wrap;html=1;fontFamily=Garamond;fontSize=35;movable=0;resizable=0;rotatable=0;deletable=0;editable=0;" vertex="1" parent="827">
                    <mxGeometry x="295" width="300" height="61" as="geometry">
                        <mxRectangle width="300" height="61" as="alternateBounds"/>
                    </mxGeometry>
                </mxCell>
                <mxCell id="830" value="" style="connectable=0;recursiveResize=0;whiteSpace=wrap;html=1;fontFamily=Garamond;fontSize=35;movable=0;resizable=0;rotatable=0;deletable=0;editable=0;" vertex="1" parent="827">
                    <mxGeometry x="595" width="295" height="61" as="geometry">
                        <mxRectangle width="295" height="61" as="alternateBounds"/>
                    </mxGeometry>
                </mxCell>
                <mxCell id="928" value="Horizon" style="text;align=center;verticalAlign=middle;rounded=0;fontFamily=Garamond;html=1;whiteSpace=wrap;fontSize=35;rotation=0;strokeWidth=2;movable=0;resizable=0;rotatable=0;deletable=0;editable=0;connectable=0;" vertex="1" parent="1">
                    <mxGeometry x="2790" y="758.5600000000001" width="156.07" height="97.12" as="geometry"/>
                </mxCell>
                <mxCell id="929" value="Assets" style="childLayout=tableLayout;recursiveResize=0;shadow=1;fontFamily=Garamond;fontSize=35;movable=0;resizable=0;rotatable=0;deletable=0;editable=0;connectable=0;" vertex="1" parent="1">
                    <mxGeometry x="1820" y="510" width="890" height="420" as="geometry"/>
                </mxCell>
                <mxCell id="930" style="shape=tableRow;horizontal=0;startSize=0;swimlaneHead=0;swimlaneBody=0;top=0;left=0;bottom=0;right=0;dropTarget=0;collapsible=0;recursiveResize=0;expand=0;fontStyle=0;strokeColor=#6c8ebf;fillColor=#dae8fc;fontFamily=Garamond;fontSize=35;movable=0;resizable=0;rotatable=0;deletable=0;editable=0;connectable=0;" vertex="1" parent="929">
                    <mxGeometry width="890" height="38" as="geometry"/>
                </mxCell>
                <mxCell id="931" value="x3" style="connectable=0;recursiveResize=0;strokeColor=#9673a6;fillColor=#e1d5e7;align=center;fontStyle=1;html=1;fontFamily=Garamond;fontSize=35;movable=0;resizable=0;rotatable=0;deletable=0;editable=0;" vertex="1" parent="930">
                    <mxGeometry width="295" height="38" as="geometry">
                        <mxRectangle width="295" height="38" as="alternateBounds"/>
                    </mxGeometry>
                </mxCell>
                <mxCell id="932" value="x4" style="connectable=0;recursiveResize=0;strokeColor=#9673a6;fillColor=#e1d5e7;align=center;fontStyle=1;html=1;fontFamily=Garamond;fontSize=35;movable=0;resizable=0;rotatable=0;deletable=0;editable=0;" vertex="1" parent="930">
                    <mxGeometry x="295" width="300" height="38" as="geometry">
                        <mxRectangle width="300" height="38" as="alternateBounds"/>
                    </mxGeometry>
                </mxCell>
                <mxCell id="933" value="x5/y" style="connectable=0;recursiveResize=0;strokeColor=#9673a6;fillColor=#e1d5e7;align=center;fontStyle=1;html=1;fontFamily=Garamond;fontSize=35;movable=0;resizable=0;rotatable=0;deletable=0;editable=0;" vertex="1" parent="930">
                    <mxGeometry x="595" width="295" height="38" as="geometry">
                        <mxRectangle width="295" height="38" as="alternateBounds"/>
                    </mxGeometry>
                </mxCell>
                <mxCell id="934" value="" style="shape=tableRow;horizontal=0;startSize=0;swimlaneHead=0;swimlaneBody=0;top=0;left=0;bottom=0;right=0;dropTarget=0;collapsible=0;recursiveResize=0;expand=0;fontStyle=0;strokeColor=inherit;fillColor=#ffffff;fontFamily=Garamond;fontSize=35;movable=0;resizable=0;rotatable=0;deletable=0;editable=0;connectable=0;" vertex="1" parent="929">
                    <mxGeometry y="38" width="890" height="65" as="geometry"/>
                </mxCell>
                <mxCell id="935" value="" style="connectable=0;recursiveResize=0;align=center;whiteSpace=wrap;html=1;fontFamily=Garamond;fontSize=35;movable=0;resizable=0;rotatable=0;deletable=0;editable=0;" vertex="1" parent="934">
                    <mxGeometry width="295" height="65" as="geometry">
                        <mxRectangle width="295" height="65" as="alternateBounds"/>
                    </mxGeometry>
                </mxCell>
                <mxCell id="936" value="" style="connectable=0;recursiveResize=0;strokeColor=inherit;fillColor=inherit;align=center;whiteSpace=wrap;html=1;fontFamily=Garamond;fontSize=35;movable=0;resizable=0;rotatable=0;deletable=0;editable=0;" vertex="1" parent="934">
                    <mxGeometry x="295" width="300" height="65" as="geometry">
                        <mxRectangle width="300" height="65" as="alternateBounds"/>
                    </mxGeometry>
                </mxCell>
                <mxCell id="937" value="" style="connectable=0;recursiveResize=0;align=center;whiteSpace=wrap;html=1;fontFamily=Garamond;fontSize=35;movable=0;resizable=0;rotatable=0;deletable=0;editable=0;" vertex="1" parent="934">
                    <mxGeometry x="595" width="295" height="65" as="geometry">
                        <mxRectangle width="295" height="65" as="alternateBounds"/>
                    </mxGeometry>
                </mxCell>
                <mxCell id="938" value="" style="shape=tableRow;horizontal=0;startSize=0;swimlaneHead=0;swimlaneBody=0;top=0;left=0;bottom=0;right=0;dropTarget=0;collapsible=0;recursiveResize=0;expand=0;fontStyle=1;strokeColor=inherit;fillColor=#EAF2D3;fontFamily=Garamond;fontSize=35;movable=0;resizable=0;rotatable=0;deletable=0;editable=0;connectable=0;" vertex="1" parent="929">
                    <mxGeometry y="103" width="890" height="61" as="geometry"/>
                </mxCell>
                <mxCell id="939" value="" style="connectable=0;recursiveResize=0;whiteSpace=wrap;html=1;fontFamily=Garamond;fontSize=35;movable=0;resizable=0;rotatable=0;deletable=0;editable=0;" vertex="1" parent="938">
                    <mxGeometry width="295" height="61" as="geometry">
                        <mxRectangle width="295" height="61" as="alternateBounds"/>
                    </mxGeometry>
                </mxCell>
                <mxCell id="940" value="" style="connectable=0;recursiveResize=0;whiteSpace=wrap;html=1;fontFamily=Garamond;fontSize=35;movable=0;resizable=0;rotatable=0;deletable=0;editable=0;" vertex="1" parent="938">
                    <mxGeometry x="295" width="300" height="61" as="geometry">
                        <mxRectangle width="300" height="61" as="alternateBounds"/>
                    </mxGeometry>
                </mxCell>
                <mxCell id="941" value="" style="connectable=0;recursiveResize=0;whiteSpace=wrap;html=1;fontFamily=Garamond;fontSize=35;movable=0;resizable=0;rotatable=0;deletable=0;editable=0;" vertex="1" parent="938">
                    <mxGeometry x="595" width="295" height="61" as="geometry">
                        <mxRectangle width="295" height="61" as="alternateBounds"/>
                    </mxGeometry>
                </mxCell>
                <mxCell id="942" value="" style="shape=tableRow;horizontal=0;startSize=0;swimlaneHead=0;swimlaneBody=0;top=0;left=0;bottom=0;right=0;dropTarget=0;collapsible=0;recursiveResize=0;expand=0;fontStyle=1;strokeColor=inherit;fillColor=#EAF2D3;fontFamily=Garamond;fontSize=35;movable=0;resizable=0;rotatable=0;deletable=0;editable=0;connectable=0;" vertex="1" parent="929">
                    <mxGeometry y="164" width="890" height="63" as="geometry"/>
                </mxCell>
                <mxCell id="943" value="" style="connectable=0;recursiveResize=0;whiteSpace=wrap;html=1;fontFamily=Garamond;fontSize=35;movable=0;resizable=0;rotatable=0;deletable=0;editable=0;" vertex="1" parent="942">
                    <mxGeometry width="295" height="63" as="geometry">
                        <mxRectangle width="295" height="63" as="alternateBounds"/>
                    </mxGeometry>
                </mxCell>
                <mxCell id="944" value="" style="connectable=0;recursiveResize=0;whiteSpace=wrap;html=1;fontFamily=Garamond;fontSize=35;movable=0;resizable=0;rotatable=0;deletable=0;editable=0;" vertex="1" parent="942">
                    <mxGeometry x="295" width="300" height="63" as="geometry">
                        <mxRectangle width="300" height="63" as="alternateBounds"/>
                    </mxGeometry>
                </mxCell>
                <mxCell id="945" value="" style="connectable=0;recursiveResize=0;whiteSpace=wrap;html=1;fontFamily=Garamond;fontSize=35;movable=0;resizable=0;rotatable=0;deletable=0;editable=0;" vertex="1" parent="942">
                    <mxGeometry x="595" width="295" height="63" as="geometry">
                        <mxRectangle width="295" height="63" as="alternateBounds"/>
                    </mxGeometry>
                </mxCell>
                <mxCell id="946" value="" style="shape=tableRow;horizontal=0;startSize=0;swimlaneHead=0;swimlaneBody=0;top=0;left=0;bottom=0;right=0;dropTarget=0;collapsible=0;recursiveResize=0;expand=0;fontStyle=0;strokeColor=inherit;fillColor=#ffffff;fontFamily=Garamond;fontSize=35;movable=0;resizable=0;rotatable=0;deletable=0;editable=0;connectable=0;" vertex="1" parent="929">
                    <mxGeometry y="227" width="890" height="65" as="geometry"/>
                </mxCell>
                <mxCell id="947" value="" style="connectable=0;recursiveResize=0;fontStyle=0;align=center;whiteSpace=wrap;html=1;fontFamily=Garamond;fontSize=35;movable=0;resizable=0;rotatable=0;deletable=0;editable=0;" vertex="1" parent="946">
                    <mxGeometry width="295" height="65" as="geometry">
                        <mxRectangle width="295" height="65" as="alternateBounds"/>
                    </mxGeometry>
                </mxCell>
                <mxCell id="948" value="" style="connectable=0;recursiveResize=0;strokeColor=inherit;fillColor=inherit;fontStyle=0;align=center;whiteSpace=wrap;html=1;fontFamily=Garamond;fontSize=35;movable=0;resizable=0;rotatable=0;deletable=0;editable=0;" vertex="1" parent="946">
                    <mxGeometry x="295" width="300" height="65" as="geometry">
                        <mxRectangle width="300" height="65" as="alternateBounds"/>
                    </mxGeometry>
                </mxCell>
                <mxCell id="949" value="" style="connectable=0;recursiveResize=0;strokeColor=inherit;fillColor=inherit;fontStyle=0;align=center;whiteSpace=wrap;html=1;fontFamily=Garamond;fontSize=35;movable=0;resizable=0;rotatable=0;deletable=0;editable=0;" vertex="1" parent="946">
                    <mxGeometry x="595" width="295" height="65" as="geometry">
                        <mxRectangle width="295" height="65" as="alternateBounds"/>
                    </mxGeometry>
                </mxCell>
                <mxCell id="950" value="" style="shape=tableRow;horizontal=0;startSize=0;swimlaneHead=0;swimlaneBody=0;top=0;left=0;bottom=0;right=0;dropTarget=0;collapsible=0;recursiveResize=0;expand=0;fontStyle=0;strokeColor=inherit;fillColor=#ffffff;fontFamily=Garamond;fontSize=35;movable=0;resizable=0;rotatable=0;deletable=0;editable=0;connectable=0;" vertex="1" parent="929">
                    <mxGeometry y="292" width="890" height="67" as="geometry"/>
                </mxCell>
                <mxCell id="951" value="" style="connectable=0;recursiveResize=0;fontStyle=0;align=center;whiteSpace=wrap;html=1;fontFamily=Garamond;fontSize=35;movable=0;resizable=0;rotatable=0;deletable=0;editable=0;" vertex="1" parent="950">
                    <mxGeometry width="295" height="67" as="geometry">
                        <mxRectangle width="295" height="67" as="alternateBounds"/>
                    </mxGeometry>
                </mxCell>
                <mxCell id="952" value="" style="connectable=0;recursiveResize=0;strokeColor=inherit;fillColor=inherit;fontStyle=0;align=center;whiteSpace=wrap;html=1;fontFamily=Garamond;fontSize=35;movable=0;resizable=0;rotatable=0;deletable=0;editable=0;" vertex="1" parent="950">
                    <mxGeometry x="295" width="300" height="67" as="geometry">
                        <mxRectangle width="300" height="67" as="alternateBounds"/>
                    </mxGeometry>
                </mxCell>
                <mxCell id="953" value="" style="connectable=0;recursiveResize=0;strokeColor=inherit;fillColor=inherit;fontStyle=0;align=center;whiteSpace=wrap;html=1;fontFamily=Garamond;fontSize=35;movable=0;resizable=0;rotatable=0;deletable=0;editable=0;" vertex="1" parent="950">
                    <mxGeometry x="595" width="295" height="67" as="geometry">
                        <mxRectangle width="295" height="67" as="alternateBounds"/>
                    </mxGeometry>
                </mxCell>
                <mxCell id="954" value="" style="shape=tableRow;horizontal=0;startSize=0;swimlaneHead=0;swimlaneBody=0;top=0;left=0;bottom=0;right=0;dropTarget=0;collapsible=0;recursiveResize=0;expand=0;fontStyle=1;strokeColor=inherit;fillColor=#EAF2D3;fontFamily=Garamond;fontSize=35;movable=0;resizable=0;rotatable=0;deletable=0;editable=0;connectable=0;" vertex="1" parent="929">
                    <mxGeometry y="359" width="890" height="61" as="geometry"/>
                </mxCell>
                <mxCell id="955" value="" style="connectable=0;recursiveResize=0;whiteSpace=wrap;html=1;fontFamily=Garamond;fontSize=35;movable=0;resizable=0;rotatable=0;deletable=0;editable=0;" vertex="1" parent="954">
                    <mxGeometry width="295" height="61" as="geometry">
                        <mxRectangle width="295" height="61" as="alternateBounds"/>
                    </mxGeometry>
                </mxCell>
                <mxCell id="956" value="" style="connectable=0;recursiveResize=0;whiteSpace=wrap;html=1;fontFamily=Garamond;fontSize=35;movable=0;resizable=0;rotatable=0;deletable=0;editable=0;" vertex="1" parent="954">
                    <mxGeometry x="295" width="300" height="61" as="geometry">
                        <mxRectangle width="300" height="61" as="alternateBounds"/>
                    </mxGeometry>
                </mxCell>
                <mxCell id="957" value="" style="connectable=0;recursiveResize=0;whiteSpace=wrap;html=1;fontFamily=Garamond;fontSize=35;movable=0;resizable=0;rotatable=0;deletable=0;editable=0;" vertex="1" parent="954">
                    <mxGeometry x="595" width="295" height="61" as="geometry">
                        <mxRectangle width="295" height="61" as="alternateBounds"/>
                    </mxGeometry>
                </mxCell>
                <mxCell id="927" value="" style="rounded=0;whiteSpace=wrap;html=1;fontFamily=Garamond;fillColor=#e1d5e7;strokeColor=#9673a6;dashed=1;dashPattern=8 8;fillStyle=hatch;fontSize=35;strokeWidth=3;perimeterSpacing=3;movable=0;resizable=0;rotatable=0;deletable=0;editable=0;connectable=0;" vertex="1" parent="1">
                    <mxGeometry x="1240" y="560" width="1460" height="160" as="geometry"/>
                </mxCell>
                <mxCell id="958" value="" style="shape=curlyBracket;whiteSpace=wrap;html=1;rounded=1;fillColor=#FF0000;rotation=-180;fontFamily=Garamond;fontSize=35;strokeWidth=2;movable=0;resizable=0;rotatable=0;deletable=0;editable=0;connectable=0;" vertex="1" parent="1">
                    <mxGeometry x="2740" y="560" width="20" height="156.25" as="geometry"/>
                </mxCell>
                <mxCell id="959" value="Window" style="text;align=center;verticalAlign=middle;rounded=0;fontFamily=Garamond;html=1;whiteSpace=wrap;fontSize=35;rotation=0;strokeWidth=2;movable=0;resizable=0;rotatable=0;deletable=0;editable=0;connectable=0;" vertex="1" parent="1">
                    <mxGeometry x="2790" y="600" width="156.07" height="97.12" as="geometry"/>
                </mxCell>
                <mxCell id="960" value="" style="rounded=0;whiteSpace=wrap;html=1;fontFamily=Garamond;fillColor=#e1d5e7;strokeColor=#9673a6;fillStyle=hatch;fontSize=35;strokeWidth=9;perimeterSpacing=3;movable=0;resizable=0;rotatable=0;deletable=0;editable=0;connectable=0;" vertex="1" parent="1">
                    <mxGeometry x="2430" y="810" width="260" height="50" as="geometry"/>
                </mxCell>
                <mxCell id="961" value="" style="shape=curlyBracket;whiteSpace=wrap;html=1;rounded=1;fillColor=#FF0000;rotation=-180;fontFamily=Garamond;fontSize=35;strokeWidth=2;movable=0;resizable=0;rotatable=0;deletable=0;editable=0;connectable=0;" vertex="1" parent="1">
                    <mxGeometry x="2740" y="758.56" width="20" height="103.56" as="geometry"/>
                </mxCell>
            </root>
        </mxGraphModel>
    </diagram>
</mxfile>